<svg width="1864" height="295" viewBox="0 0 1864 295" fill="none" xmlns="http://www.w3.org/2000/svg">
<path d="M137.359 49.6406C136.057 49.1198 134.495 48.2083 132.672 46.9062C130.849 45.6042 128.245 44.4323 124.859 43.3906C121.474 42.0885 117.177 41.0469 111.969 40.2656C106.76 39.4844 100.12 39.3542 92.0469 39.875V0.421875C103.505 0.682292 115.094 1.98438 126.812 4.32812C138.792 6.41146 148.427 9.79688 155.719 14.4844C154.156 17.8698 152.333 21.6458 150.25 25.8125C148.167 29.7188 146.214 33.4948 144.391 37.1406C142.568 40.526 141.005 43.3906 139.703 45.7344C138.401 48.0781 137.62 49.3802 137.359 49.6406ZM2.59375 80.8906C2.59375 69.4323 4.54688 59.1458 8.45312 50.0312C12.3594 40.9167 17.5677 32.974 24.0781 26.2031C30.849 19.1719 38.6615 13.7031 47.5156 9.79688C56.6302 5.63021 66.1354 2.89583 76.0312 1.59375V42.6094C67.6979 45.474 60.7969 50.5521 55.3281 57.8438C49.8594 64.875 47.125 72.0365 47.125 79.3281C47.125 89.4844 49.8594 97.6875 55.3281 103.938C60.7969 110.188 67.6979 115.656 76.0312 120.344V164.875C67.4375 160.708 58.8438 156.281 50.25 151.594C41.6562 146.646 33.8438 140.917 26.8125 134.406C19.7812 127.896 13.9219 120.344 9.23438 111.75C4.80729 103.156 2.59375 92.8698 2.59375 80.8906ZM8.84375 240.266C12.4896 242.349 17.0469 244.432 22.5156 246.516C28.2448 248.339 34.1042 250.161 40.0938 251.984C46.0833 253.547 52.0729 254.849 58.0625 255.891C64.0521 256.932 69.651 257.453 74.8594 257.453H76.0312V294.562H75.25C69 294.562 62.4896 294.172 55.7188 293.391C49.2083 292.87 42.5677 291.828 35.7969 290.266C29.026 288.703 22.5156 286.62 16.2656 284.016C10.276 281.151 5.06771 277.766 0.640625 273.859L8.84375 240.266ZM92.0469 128.156C100.641 132.062 109.365 136.229 118.219 140.656C127.333 145.083 135.536 150.552 142.828 157.062C150.12 163.312 156.109 170.995 160.797 180.109C165.484 189.224 167.828 200.552 167.828 214.094C167.828 223.469 166.005 232.583 162.359 241.438C158.974 250.292 154.026 258.365 147.516 265.656C141.266 272.688 133.453 278.677 124.078 283.625C114.703 288.573 104.026 291.828 92.0469 293.391V255.891C113.401 250.682 124.078 236.49 124.078 213.312C124.078 204.198 121.083 196.646 115.094 190.656C109.104 184.667 101.422 179.068 92.0469 173.859V128.156ZM217.828 5.10938H265.484V293H217.828V5.10938ZM385.797 163.312H281.5V131.281H385.797V163.312ZM281.5 257.453H397.906V293H281.5V257.453ZM397.906 5.10938V40.6562H281.5V5.10938H397.906ZM697.906 293H649.469L574.859 77.375L499.469 293H450.641L551.422 5.5H597.906L697.906 293ZM600.641 201.594L611.969 233.234H537.359L548.297 201.594H600.641ZM1002.98 141.438C1008.97 142.219 1015.35 144.172 1022.12 147.297C1028.9 150.422 1035.15 154.849 1040.88 160.578C1046.86 166.307 1051.81 173.339 1055.72 181.672C1059.62 189.745 1061.58 199.12 1061.58 209.797C1061.58 222.818 1059.62 234.016 1055.72 243.391C1051.81 252.766 1046.86 260.578 1040.88 266.828C1035.15 272.818 1028.77 277.635 1021.73 281.281C1014.96 284.667 1008.32 287.271 1001.81 289.094C995.562 290.917 989.964 292.089 985.016 292.609C980.068 292.87 976.812 293 975.25 293H929.938V258.625H972.516C986.318 258.625 997.125 254.198 1004.94 245.344C1012.75 236.49 1016.66 224.641 1016.66 209.797C1016.66 195.734 1012.62 183.885 1004.55 174.25C996.474 164.615 984.625 159.797 969 159.797H929.938V128.156H948.688C954.417 128.156 960.276 128.026 966.266 127.766C972.255 127.505 977.854 126.073 983.062 123.469C988.271 120.865 992.438 116.438 995.562 110.188C998.948 103.938 1000.64 94.9531 1000.64 83.2344C1000.64 78.5469 999.99 73.7292 998.688 68.7812C997.385 63.5729 994.781 58.8854 990.875 54.7188C986.969 50.5521 981.37 47.1667 974.078 44.5625C966.786 41.9583 957.151 40.6562 945.172 40.6562H929.938V5.10938H949.859C962.099 5.10938 973.948 6.54167 985.406 9.40625C996.865 12.2708 1007.02 16.8281 1015.88 23.0781C1024.73 29.3281 1031.76 37.5312 1036.97 47.6875C1042.18 57.5833 1044.78 69.4323 1044.78 83.2344C1044.78 91.3073 1043.48 98.7292 1040.88 105.5C1038.27 112.01 1035.02 117.74 1031.11 122.688C1027.2 127.635 1022.65 131.802 1017.44 135.188C1012.49 138.312 1007.67 140.396 1002.98 141.438ZM867.047 5.10938H913.922V293H867.047V5.10938ZM1363.53 293H1315.09L1240.48 77.375L1165.09 293H1116.27L1217.05 5.5H1263.53L1363.53 293ZM1266.27 201.594L1277.59 233.234H1202.98L1213.92 201.594H1266.27ZM1627.2 5.10938V37.1406H1541.27V293H1494V37.1406H1408.06V5.10938H1627.2ZM1731.11 5.10938V257.453H1863.53V293H1683.45V5.10938H1731.11Z" fill="black" fill-opacity="0.6"/>
</svg>
